<svg width="24" height="24" viewBox="0 0 24 24" fill="none" xmlns="http://www.w3.org/2000/svg">
<path opacity="0.2" d="M19.5938 7.59375L16.5 10.5L19.5 18.75L17.25 21L12.75 14.25L10.5 16.5V18.75L8.25 21L6.75 17.25L3 15.75L5.25 13.5H7.5L9.75 11.25L3 6.75L5.25 4.5L13.5 7.5L16.4062 4.40625C16.8289 3.98356 17.4022 3.74609 18 3.74609C18.5978 3.74609 19.1711 3.98356 19.5938 4.40625C20.0164 4.82894 20.2539 5.40222 20.2539 6C20.2539 6.59777 20.0164 7.17106 19.5938 7.59375Z" fill="#1F4284"/>
<path d="M17.3747 10.707L20.1066 8.13544L20.1225 8.12044C20.6852 7.55777 21.0013 6.79462 21.0013 5.99888C21.0013 5.20314 20.6852 4.43999 20.1225 3.87732C19.5598 3.31464 18.7967 2.99854 18.0009 2.99854C17.2052 2.99854 16.4421 3.31464 15.8794 3.87732L15.8644 3.89325L13.2928 6.62513L5.51157 3.79388C5.37746 3.7451 5.23221 3.7356 5.09289 3.76648C4.95356 3.79737 4.82594 3.86737 4.72501 3.96825L2.47501 6.21825C2.3966 6.29672 2.33658 6.3916 2.29926 6.49606C2.26195 6.60052 2.24826 6.71196 2.2592 6.82234C2.27014 6.93272 2.30543 7.03931 2.36253 7.13441C2.41962 7.22951 2.4971 7.31076 2.58938 7.37231L8.57907 11.3651L7.18969 12.7498H5.25001C5.05136 12.7499 4.86086 12.8288 4.72032 12.9692L2.47032 15.2192C2.38257 15.3067 2.31788 15.4146 2.28204 15.5333C2.2462 15.6519 2.24032 15.7776 2.26493 15.8991C2.28955 16.0206 2.34388 16.1341 2.42307 16.2294C2.50227 16.3247 2.60386 16.399 2.71876 16.4454L6.17063 17.8264L7.54876 21.2717L7.55438 21.2867C7.60206 21.4021 7.67779 21.5038 7.77471 21.5825C7.87164 21.6612 7.98668 21.7145 8.10941 21.7375C8.23214 21.7605 8.35867 21.7525 8.47752 21.7142C8.59637 21.6759 8.70378 21.6086 8.79001 21.5183L11.0278 19.2795C11.0978 19.2101 11.1535 19.1277 11.1916 19.0368C11.2298 18.9459 11.2496 18.8484 11.25 18.7498V16.8101L12.6338 15.4264L16.6266 21.4161C16.6881 21.5083 16.7694 21.5858 16.8645 21.6429C16.9596 21.7 17.0662 21.7353 17.1765 21.7462C17.2869 21.7572 17.3984 21.7435 17.5028 21.7062C17.6073 21.6689 17.7022 21.6088 17.7806 21.5304L20.0306 19.2804C20.1315 19.1795 20.2015 19.0519 20.2324 18.9126C20.2633 18.7732 20.2538 18.628 20.205 18.4939L17.3747 10.707ZM17.3681 19.8223L13.3753 13.8326C13.314 13.7398 13.2328 13.6618 13.1376 13.6042C13.0425 13.5467 12.9357 13.511 12.825 13.4998C12.8003 13.4984 12.7756 13.4984 12.7509 13.4998C12.6524 13.4997 12.5549 13.5191 12.4638 13.5567C12.3728 13.5944 12.29 13.6496 12.2203 13.7192L9.97032 15.9692C9.90052 16.0388 9.84514 16.1215 9.80734 16.2126C9.76953 16.3036 9.75005 16.4012 9.75001 16.4998V18.4395L8.52469 19.6648L7.44657 16.9686C7.40885 16.875 7.35262 16.7899 7.28126 16.7186C7.2099 16.6472 7.12486 16.591 7.03126 16.5533L4.33688 15.4751L5.56126 14.2498H7.50001C7.59853 14.2499 7.6961 14.2306 7.78714 14.1929C7.87819 14.1553 7.96093 14.1001 8.03063 14.0304L10.2806 11.7804C10.3592 11.702 10.4194 11.607 10.4568 11.5025C10.4942 11.3979 10.5079 11.2864 10.497 11.1759C10.4861 11.0653 10.4507 10.9586 10.3935 10.8635C10.3363 10.7683 10.2587 10.687 10.1663 10.6254L4.17751 6.63169L5.44313 5.367L13.245 8.20388C13.3825 8.25439 13.5317 8.26355 13.6743 8.23023C13.8169 8.19691 13.9467 8.12257 14.0475 8.01638L16.9481 4.93388C17.233 4.67298 17.6075 4.53202 17.9937 4.54036C18.3798 4.5487 18.7479 4.7057 19.0212 4.97865C19.2946 5.2516 19.452 5.61947 19.4609 6.00564C19.4697 6.3918 19.3293 6.7665 19.0688 7.05169L15.9872 9.95232C15.881 10.0532 15.8067 10.1829 15.7733 10.3255C15.74 10.4681 15.7492 10.6174 15.7997 10.7548L18.6366 18.5567L17.3681 19.8223Z" fill="#1F4284"/>
</svg>
