<svg width="22" height="22" viewBox="0 0 22 22" fill="none" xmlns="http://www.w3.org/2000/svg">
<path opacity="0.2" d="M19.25 4.125V17.875H2.75V4.125H19.25Z" fill="white"/>
<path d="M19.9375 4.125V7.5625C19.9375 7.74484 19.8651 7.9197 19.7361 8.04864C19.6072 8.17757 19.4323 8.25 19.25 8.25C19.0677 8.25 18.8928 8.17757 18.7639 8.04864C18.6349 7.9197 18.5625 7.74484 18.5625 7.5625V4.8125H15.8125C15.6302 4.8125 15.4553 4.74007 15.3264 4.61114C15.1974 4.4822 15.125 4.30734 15.125 4.125C15.125 3.94266 15.1974 3.7678 15.3264 3.63886C15.4553 3.50993 15.6302 3.4375 15.8125 3.4375H19.25C19.4323 3.4375 19.6072 3.50993 19.7361 3.63886C19.8651 3.7678 19.9375 3.94266 19.9375 4.125ZM6.1875 17.1875H3.4375V14.4375C3.4375 14.2552 3.36507 14.0803 3.23614 13.9514C3.1072 13.8224 2.93234 13.75 2.75 13.75C2.56766 13.75 2.3928 13.8224 2.26386 13.9514C2.13493 14.0803 2.0625 14.2552 2.0625 14.4375V17.875C2.0625 18.0573 2.13493 18.2322 2.26386 18.3611C2.3928 18.4901 2.56766 18.5625 2.75 18.5625H6.1875C6.36984 18.5625 6.5447 18.4901 6.67364 18.3611C6.80257 18.2322 6.875 18.0573 6.875 17.875C6.875 17.6927 6.80257 17.5178 6.67364 17.3889C6.5447 17.2599 6.36984 17.1875 6.1875 17.1875ZM19.25 13.75C19.0677 13.75 18.8928 13.8224 18.7639 13.9514C18.6349 14.0803 18.5625 14.2552 18.5625 14.4375V17.1875H15.8125C15.6302 17.1875 15.4553 17.2599 15.3264 17.3889C15.1974 17.5178 15.125 17.6927 15.125 17.875C15.125 18.0573 15.1974 18.2322 15.3264 18.3611C15.4553 18.4901 15.6302 18.5625 15.8125 18.5625H19.25C19.4323 18.5625 19.6072 18.4901 19.7361 18.3611C19.8651 18.2322 19.9375 18.0573 19.9375 17.875V14.4375C19.9375 14.2552 19.8651 14.0803 19.7361 13.9514C19.6072 13.8224 19.4323 13.75 19.25 13.75ZM2.75 8.25C2.93234 8.25 3.1072 8.17757 3.23614 8.04864C3.36507 7.9197 3.4375 7.74484 3.4375 7.5625V4.8125H6.1875C6.36984 4.8125 6.5447 4.74007 6.67364 4.61114C6.80257 4.4822 6.875 4.30734 6.875 4.125C6.875 3.94266 6.80257 3.7678 6.67364 3.63886C6.5447 3.50993 6.36984 3.4375 6.1875 3.4375H2.75C2.56766 3.4375 2.3928 3.50993 2.26386 3.63886C2.13493 3.7678 2.0625 3.94266 2.0625 4.125V7.5625C2.0625 7.74484 2.13493 7.9197 2.26386 8.04864C2.3928 8.17757 2.56766 8.25 2.75 8.25ZM6.875 6.875C6.69266 6.875 6.5178 6.94743 6.38886 7.07636C6.25993 7.2053 6.1875 7.38016 6.1875 7.5625V14.4375C6.1875 14.6198 6.25993 14.7947 6.38886 14.9236C6.5178 15.0526 6.69266 15.125 6.875 15.125C7.05734 15.125 7.2322 15.0526 7.36114 14.9236C7.49007 14.7947 7.5625 14.6198 7.5625 14.4375V7.5625C7.5625 7.38016 7.49007 7.2053 7.36114 7.07636C7.2322 6.94743 7.05734 6.875 6.875 6.875ZM15.8125 14.4375V7.5625C15.8125 7.38016 15.7401 7.2053 15.6111 7.07636C15.4822 6.94743 15.3073 6.875 15.125 6.875C14.9427 6.875 14.7678 6.94743 14.6389 7.07636C14.5099 7.2053 14.4375 7.38016 14.4375 7.5625V14.4375C14.4375 14.6198 14.5099 14.7947 14.6389 14.9236C14.7678 15.0526 14.9427 15.125 15.125 15.125C15.3073 15.125 15.4822 15.0526 15.6111 14.9236C15.7401 14.7947 15.8125 14.6198 15.8125 14.4375ZM12.375 6.875C12.1927 6.875 12.0178 6.94743 11.8889 7.07636C11.7599 7.2053 11.6875 7.38016 11.6875 7.5625V14.4375C11.6875 14.6198 11.7599 14.7947 11.8889 14.9236C12.0178 15.0526 12.1927 15.125 12.375 15.125C12.5573 15.125 12.7322 15.0526 12.8611 14.9236C12.9901 14.7947 13.0625 14.6198 13.0625 14.4375V7.5625C13.0625 7.38016 12.9901 7.2053 12.8611 7.07636C12.7322 6.94743 12.5573 6.875 12.375 6.875ZM9.625 6.875C9.44266 6.875 9.2678 6.94743 9.13886 7.07636C9.00993 7.2053 8.9375 7.38016 8.9375 7.5625V14.4375C8.9375 14.6198 9.00993 14.7947 9.13886 14.9236C9.2678 15.0526 9.44266 15.125 9.625 15.125C9.80734 15.125 9.9822 15.0526 10.1111 14.9236C10.2401 14.7947 10.3125 14.6198 10.3125 14.4375V7.5625C10.3125 7.38016 10.2401 7.2053 10.1111 7.07636C9.9822 6.94743 9.80734 6.875 9.625 6.875Z" fill="white"/>
</svg>
