<svg width="24" height="24" viewBox="0 0 24 24" fill="none" xmlns="http://www.w3.org/2000/svg">
<path opacity="0.2" d="M22.7141 8.57129L21.234 19.6753C21.2088 19.864 21.1159 20.0371 20.9727 20.1625C20.8295 20.2879 20.6456 20.357 20.4552 20.3569H4.54456C4.3542 20.357 4.17031 20.2879 4.02706 20.1625C3.88381 20.0371 3.79095 19.864 3.76573 19.6753L2.28564 8.57129H22.7141Z" fill="#D34127"/>
<path d="M13.2857 11.7141V17.2141C13.2857 17.4224 13.2029 17.6223 13.0556 17.7696C12.9082 17.917 12.7084 17.9998 12.5 17.9998C12.2916 17.9998 12.0918 17.917 11.9444 17.7696C11.7971 17.6223 11.7143 17.4224 11.7143 17.2141V11.7141C11.7143 11.5057 11.7971 11.3058 11.9444 11.1585C12.0918 11.0111 12.2916 10.9284 12.5 10.9284C12.7084 10.9284 12.9082 11.0111 13.0556 11.1585C13.2029 11.3058 13.2857 11.5057 13.2857 11.7141ZM16.9039 11.6355L16.3539 17.1355C16.343 17.2385 16.3526 17.3426 16.3821 17.4418C16.4116 17.5411 16.4605 17.6335 16.5258 17.7138C16.5912 17.7941 16.6718 17.8608 16.7629 17.9098C16.8541 17.9589 16.9541 17.9895 17.0571 17.9998C17.0836 18.0012 17.1102 18.0012 17.1367 17.9998C17.3313 17.9995 17.5189 17.9271 17.6631 17.7964C17.8074 17.6658 17.898 17.4863 17.9175 17.2926L18.4675 11.7926C18.4883 11.5853 18.4259 11.3782 18.2941 11.2168C18.1622 11.0555 17.9716 10.9531 17.7643 10.9323C17.5569 10.9115 17.3498 10.9738 17.1884 11.1057C17.0271 11.2376 16.9247 11.4282 16.9039 11.6355ZM8.09609 11.6355C8.07525 11.4282 7.9729 11.2376 7.81156 11.1057C7.65021 10.9738 7.44308 10.9115 7.23574 10.9323C7.0284 10.9531 6.83783 11.0555 6.70595 11.2168C6.57407 11.3782 6.51169 11.5853 6.53253 11.7926L7.08253 17.2926C7.10207 17.4871 7.1934 17.6673 7.33869 17.7981C7.48397 17.9288 7.67278 18.0007 7.86824 17.9998C7.89473 18.0012 7.92129 18.0012 7.94779 17.9998C8.05046 17.9894 8.15008 17.959 8.24099 17.9102C8.33189 17.8614 8.41228 17.7951 8.47758 17.7152C8.54288 17.6353 8.59181 17.5434 8.62156 17.4446C8.65132 17.3458 8.66132 17.2421 8.651 17.1394L8.09609 11.6355ZM23.4931 8.67534L22.013 19.7794C21.9614 20.1562 21.7753 20.5018 21.489 20.7523C21.2028 21.0028 20.8357 21.1414 20.4553 21.1426H4.54468C4.16431 21.1414 3.79719 21.0028 3.51095 20.7523C3.22471 20.5018 3.03864 20.1562 2.98701 19.7794L1.50693 8.67534C1.49209 8.56435 1.50115 8.45147 1.5335 8.34427C1.56584 8.23706 1.62073 8.13801 1.69448 8.05375C1.76824 7.96949 1.85915 7.90197 1.96112 7.85571C2.0631 7.80945 2.17378 7.78552 2.28576 7.78553H6.64351L11.9107 1.76796C11.9844 1.68436 12.0751 1.6174 12.1767 1.57154C12.2783 1.52567 12.3885 1.50195 12.5 1.50195C12.6115 1.50195 12.7217 1.52567 12.8233 1.57154C12.9249 1.6174 13.0155 1.68436 13.0893 1.76796L18.3565 7.78553H22.7142C22.8262 7.78552 22.9369 7.80945 23.0389 7.85571C23.1409 7.90197 23.2318 7.96949 23.3055 8.05375C23.3793 8.13801 23.4342 8.23706 23.4665 8.34427C23.4989 8.45147 23.5079 8.56435 23.4931 8.67534ZM8.73154 7.78553H16.2685L12.5 3.47885L8.73154 7.78553ZM21.8166 9.35695H3.18344L4.54468 19.5712H20.4553L21.8166 9.35695Z" fill="#D34127"/>
</svg>
