<svg width="24" height="24" viewBox="0 0 24 24" fill="none" xmlns="http://www.w3.org/2000/svg">
<g clip-path="url(#clip0_197_4052)">
<path opacity="0.2" d="M23 11.5C23 13.6756 22.3549 15.8023 21.1462 17.6113C19.9375 19.4202 18.2195 20.8301 16.2095 21.6627C14.1995 22.4952 11.9878 22.7131 9.85401 22.2886C7.72022 21.8642 5.76021 20.8165 4.22183 19.2782C2.68345 17.7398 1.6358 15.7798 1.21137 13.646C0.786929 11.5122 1.00477 9.30047 1.83733 7.29048C2.66989 5.28049 4.07979 3.56253 5.88873 2.35383C7.69767 1.14514 9.82441 0.5 12 0.5C14.9174 0.5 17.7153 1.65892 19.7782 3.72182C21.8411 5.78472 23 8.58262 23 11.5Z" fill="#FF383C"/>
<path d="M12 0C9.62663 0 7.30655 0.703788 5.33316 2.02236C3.35977 3.34094 1.8217 5.21508 0.913451 7.4078C0.00519941 9.60051 -0.232441 12.0133 0.230582 14.3411C0.693605 16.6689 1.83649 18.807 3.51472 20.4853C5.19295 22.1635 7.33115 23.3064 9.65892 23.7694C11.9867 24.2324 14.3995 23.9948 16.5922 23.0865C18.7849 22.1783 20.6591 20.6402 21.9776 18.6668C23.2962 16.6934 24 14.3734 24 12C23.9966 8.81843 22.7313 5.76814 20.4816 3.51843C18.2319 1.26872 15.1816 0.00335979 12 0ZM22.1538 12C22.1562 14.3741 21.3224 16.6732 19.7988 18.4938L5.50616 4.2C6.98885 2.96651 8.79218 2.18082 10.7051 1.93486C12.6181 1.6889 14.5615 1.99285 16.308 2.81114C18.0545 3.62944 19.5318 4.92822 20.5671 6.55552C21.6024 8.18281 22.1527 10.0713 22.1538 12ZM1.84616 12C1.8438 9.62592 2.67756 7.32684 4.20116 5.50615L18.4938 19.8C17.0112 21.0335 15.2078 21.8192 13.2949 22.0651C11.3819 22.3111 9.4385 22.0071 7.692 21.1889C5.9455 20.3706 4.46818 19.0718 3.43291 17.4445C2.39765 15.8172 1.84726 13.9287 1.84616 12Z" fill="#FF383C"/>
</g>
<defs>
<clipPath id="clip0_197_4052">
<rect width="24" height="24" fill="white"/>
</clipPath>
</defs>
</svg>
