<svg width="23" height="23" viewBox="0 0 23 23" fill="none" xmlns="http://www.w3.org/2000/svg">
<path d="M7.14272 10.7148H15.7141C15.9076 10.7148 16.075 10.6442 16.2164 10.5028C16.3577 10.3614 16.4284 10.194 16.4284 10.0006V5.71484C16.4284 5.52139 16.3577 5.35398 16.2164 5.21261C16.075 5.07124 15.9076 5.00056 15.7141 5.00056H7.14272C6.94927 5.00056 6.78185 5.07124 6.64049 5.21261C6.49912 5.35398 6.42843 5.52139 6.42843 5.71484V10.0006C6.42843 10.194 6.49912 10.3614 6.64049 10.5028C6.78185 10.6442 6.94927 10.7148 7.14272 10.7148ZM7.857 6.42913H14.9999V9.28627H7.857V6.42913ZM17.857 2.14342H4.99986C4.59807 2.14342 4.25953 2.28106 3.98424 2.55636C3.70894 2.83166 3.57129 3.1702 3.57129 3.57199V19.2863C3.57129 19.6881 3.70894 20.0266 3.98424 20.3019C4.25953 20.5772 4.59807 20.7148 4.99986 20.7148H17.857C18.2588 20.7148 18.5973 20.5772 18.8726 20.3019C19.1479 20.0266 19.2856 19.6881 19.2856 19.2863V3.57199C19.2856 3.1702 19.1479 2.83166 18.8726 2.55636C18.5973 2.28106 18.2588 2.14342 17.857 2.14342ZM17.857 19.2863H4.99986V3.57199H17.857V19.2863ZM8.92843 13.2148C8.92843 13.5125 8.82427 13.7654 8.61593 13.9738C8.4076 14.1821 8.15462 14.2863 7.857 14.2863C7.55938 14.2863 7.30641 14.1821 7.09807 13.9738C6.88974 13.7654 6.78557 13.5125 6.78557 13.2148C6.78557 12.9172 6.88974 12.6642 7.09807 12.4559C7.30641 12.2476 7.55938 12.1434 7.857 12.1434C8.15462 12.1434 8.4076 12.2476 8.61593 12.4559C8.82427 12.6642 8.92843 12.9172 8.92843 13.2148ZM12.4999 13.2148C12.4999 13.5125 12.3957 13.7654 12.1874 13.9738C11.979 14.1821 11.7261 14.2863 11.4284 14.2863C11.1308 14.2863 10.8778 14.1821 10.6695 13.9738C10.4612 13.7654 10.357 13.5125 10.357 13.2148C10.357 12.9172 10.4612 12.6642 10.6695 12.4559C10.8778 12.2476 11.1308 12.1434 11.4284 12.1434C11.7261 12.1434 11.979 12.2476 12.1874 12.4559C12.3957 12.6642 12.4999 12.9172 12.4999 13.2148ZM16.0713 13.2148C16.0713 13.5125 15.9671 13.7654 15.7588 13.9738C15.5505 14.1821 15.2975 14.2863 14.9999 14.2863C14.7022 14.2863 14.4493 14.1821 14.2409 13.9738C14.0326 13.7654 13.9284 13.5125 13.9284 13.2148C13.9284 12.9172 14.0326 12.6642 14.2409 12.4559C14.4493 12.2476 14.7022 12.1434 14.9999 12.1434C15.2975 12.1434 15.5505 12.2476 15.7588 12.4559C15.9671 12.6642 16.0713 12.9172 16.0713 13.2148ZM8.92843 16.7863C8.92843 17.0839 8.82427 17.3369 8.61593 17.5452C8.4076 17.7535 8.15462 17.8577 7.857 17.8577C7.55938 17.8577 7.30641 17.7535 7.09807 17.5452C6.88974 17.3369 6.78557 17.0839 6.78557 16.7863C6.78557 16.4887 6.88974 16.2357 7.09807 16.0273C7.30641 15.819 7.55938 15.7148 7.857 15.7148C8.15462 15.7148 8.4076 15.819 8.61593 16.0273C8.82427 16.2357 8.92843 16.4887 8.92843 16.7863ZM12.4999 16.7863C12.4999 17.0839 12.3957 17.3369 12.1874 17.5452C11.979 17.7535 11.7261 17.8577 11.4284 17.8577C11.1308 17.8577 10.8778 17.7535 10.6695 17.5452C10.4612 17.3369 10.357 17.0839 10.357 16.7863C10.357 16.4887 10.4612 16.2357 10.6695 16.0273C10.8778 15.819 11.1308 15.7148 11.4284 15.7148C11.7261 15.7148 11.979 15.819 12.1874 16.0273C12.3957 16.2357 12.4999 16.4887 12.4999 16.7863ZM16.0713 16.7863C16.0713 17.0839 15.9671 17.3369 15.7588 17.5452C15.5505 17.7535 15.2975 17.8577 14.9999 17.8577C14.7022 17.8577 14.4493 17.7535 14.2409 17.5452C14.0326 17.3369 13.9284 17.0839 13.9284 16.7863C13.9284 16.4887 14.0326 16.2357 14.2409 16.0273C14.4493 15.819 14.7022 15.7148 14.9999 15.7148C15.2975 15.7148 15.5505 15.819 15.7588 16.0273C15.9671 16.2357 16.0713 16.4887 16.0713 16.7863Z" fill="#1F4284"/>
</svg>
