<svg width="22" height="22" viewBox="0 0 22 22" fill="none" xmlns="http://www.w3.org/2000/svg">
<path opacity="0.2" d="M18.5625 3.4375V14.4375H14.4375V7.5625H7.5625V3.4375H18.5625Z" fill="#1F4284"/>
<path d="M18.5625 2.75H7.5625C7.38016 2.75 7.2053 2.82243 7.07636 2.95136C6.94743 3.0803 6.875 3.25516 6.875 3.4375V6.875H3.4375C3.25516 6.875 3.0803 6.94743 2.95136 7.07636C2.82243 7.2053 2.75 7.38016 2.75 7.5625V18.5625C2.75 18.7448 2.82243 18.9197 2.95136 19.0486C3.0803 19.1776 3.25516 19.25 3.4375 19.25H14.4375C14.6198 19.25 14.7947 19.1776 14.9236 19.0486C15.0526 18.9197 15.125 18.7448 15.125 18.5625V15.125H18.5625C18.7448 15.125 18.9197 15.0526 19.0486 14.9236C19.1776 14.7947 19.25 14.6198 19.25 14.4375V3.4375C19.25 3.25516 19.1776 3.0803 19.0486 2.95136C18.9197 2.82243 18.7448 2.75 18.5625 2.75ZM13.75 17.875H4.125V8.25H13.75V17.875ZM17.875 13.75H15.125V7.5625C15.125 7.38016 15.0526 7.2053 14.9236 7.07636C14.7947 6.94743 14.6198 6.875 14.4375 6.875H8.25V4.125H17.875V13.75Z" fill="#1F4284"/>
</svg>
