<svg width="8" height="8" viewBox="0 0 8 8" fill="none" xmlns="http://www.w3.org/2000/svg">
<path opacity="0.2" d="M8 4C8 4.79112 7.7654 5.56448 7.32588 6.22228C6.88635 6.88008 6.26164 7.39277 5.53073 7.69552C4.79983 7.99827 3.99556 8.07748 3.21964 7.92314C2.44372 7.7688 1.73098 7.38784 1.17157 6.82843C0.612164 6.26902 0.231202 5.55628 0.0768607 4.78036C-0.0774802 4.00444 0.00173314 3.20017 0.304484 2.46927C0.607234 1.73836 1.11992 1.11365 1.77772 0.674122C2.43552 0.234596 3.20888 0 4 0C5.06087 0 6.07828 0.421427 6.82843 1.17157C7.57857 1.92172 8 2.93913 8 4Z" fill="#2D3436"/>
<path d="M5 4C5 4.19778 4.94135 4.39112 4.83147 4.55557C4.72159 4.72002 4.56541 4.84819 4.38268 4.92388C4.19996 4.99957 3.99889 5.01937 3.80491 4.98078C3.61093 4.9422 3.43275 4.84696 3.29289 4.70711C3.15304 4.56725 3.0578 4.38907 3.01922 4.19509C2.98063 4.00111 3.00043 3.80004 3.07612 3.61732C3.15181 3.43459 3.27998 3.27841 3.44443 3.16853C3.60888 3.05865 3.80222 3 4 3C4.26522 3 4.51957 3.10536 4.70711 3.29289C4.89464 3.48043 5 3.73478 5 4Z" fill="#2D3436"/>
</svg>
