<svg width="12" height="12" viewBox="0 0 12 12" fill="none" xmlns="http://www.w3.org/2000/svg">
<path d="M11.5898 5.84766C11.582 5.83203 11.4746 5.63867 11.2676 5.26758C11.0605 4.89648 10.7383 4.48828 10.3008 4.04297C10.0039 3.75391 9.69141 3.49609 9.36328 3.26953C9.02734 3.04297 8.67969 2.85547 8.32031 2.70703C7.96094 2.55859 7.58594 2.44531 7.19531 2.36719C6.80469 2.28906 6.40625 2.25 6 2.25C5.59375 2.25 5.19531 2.28906 4.80469 2.36719C4.41406 2.44531 4.03906 2.55859 3.67969 2.70703C3.32031 2.85547 2.97266 3.04297 2.63672 3.26953C2.30859 3.49609 1.99609 3.75391 1.69922 4.04297C1.26172 4.48828 0.939453 4.89648 0.732422 5.26758C0.525391 5.63867 0.417969 5.83203 0.410156 5.84766C0.394531 5.87109 0.384766 5.89648 0.380859 5.92383C0.376953 5.95117 0.375 5.97656 0.375 6C0.375 6.03125 0.376953 6.05859 0.380859 6.08203C0.384766 6.10547 0.394531 6.12891 0.410156 6.15234C0.417969 6.16797 0.525391 6.36133 0.732422 6.73242C0.939453 7.10352 1.26172 7.51172 1.69922 7.95703C1.99609 8.24609 2.30859 8.50391 2.63672 8.73047C2.97266 8.95703 3.32031 9.14453 3.67969 9.29297C4.03906 9.44141 4.41406 9.55469 4.80469 9.63281C5.19531 9.71094 5.59375 9.75 6 9.75C6.40625 9.75 6.80469 9.71094 7.19531 9.63281C7.58594 9.55469 7.96094 9.44141 8.32031 9.29297C8.67969 9.14453 9.02734 8.95703 9.36328 8.73047C9.69141 8.50391 10.0039 8.24609 10.3008 7.95703C10.7383 7.51172 11.0605 7.10352 11.2676 6.73242C11.4746 6.36133 11.582 6.16797 11.5898 6.15234C11.6055 6.12891 11.6152 6.10547 11.6191 6.08203C11.623 6.05859 11.625 6.03125 11.625 6C11.625 5.97656 11.623 5.95117 11.6191 5.92383C11.6152 5.89648 11.6055 5.87109 11.5898 5.84766ZM6 9C5.64062 9 5.29297 8.96875 4.95703 8.90625C4.61328 8.83594 4.28516 8.73633 3.97266 8.60742C3.66016 8.47852 3.35938 8.31641 3.07031 8.12109C2.78906 7.92578 2.51562 7.69922 2.25 7.44141C2.04688 7.23047 1.85547 7.00781 1.67578 6.77344C1.49609 6.53906 1.33203 6.29297 1.18359 6.03516L1.17188 6C1.32031 5.72656 1.48633 5.4707 1.66992 5.23242C1.85352 4.99414 2.04688 4.76953 2.25 4.55859C2.51562 4.30078 2.78906 4.07422 3.07031 3.87891C3.35938 3.68359 3.66016 3.52148 3.97266 3.39258C4.28516 3.26367 4.61328 3.16406 4.95703 3.09375C5.29297 3.03125 5.64062 3 6 3C6.35938 3 6.70703 3.03125 7.04297 3.09375C7.38672 3.16406 7.71484 3.26367 8.02734 3.39258C8.33984 3.52148 8.64062 3.68359 8.92969 3.87891C9.21094 4.07422 9.48438 4.30078 9.75 4.55859C9.96094 4.76953 10.1543 4.99219 10.3301 5.22656C10.5059 5.46094 10.668 5.70703 10.8164 5.96484L10.8281 6C10.7422 6.15625 10.5859 6.40234 10.3594 6.73828C10.125 7.06641 9.8125 7.39844 9.42188 7.73438C9.03125 8.07031 8.55078 8.36719 7.98047 8.625C7.41797 8.875 6.75781 9 6 9ZM6 3.75C5.375 3.75 4.84375 3.96875 4.40625 4.40625C3.96875 4.84375 3.75 5.375 3.75 6C3.75 6.625 3.96875 7.15625 4.40625 7.59375C4.84375 8.03125 5.375 8.25 6 8.25C6.625 8.25 7.15625 8.03125 7.59375 7.59375C8.03125 7.15625 8.25 6.625 8.25 6C8.25 5.38281 8.0293 4.85352 7.58789 4.41211C7.14648 3.9707 6.61719 3.75 6 3.75ZM6 7.5C5.58594 7.5 5.23242 7.35352 4.93945 7.06055C4.64648 6.76758 4.5 6.41406 4.5 6C4.5 5.58594 4.64648 5.23242 4.93945 4.93945C5.23242 4.64648 5.58594 4.5 6 4.5C6.41406 4.5 6.76758 4.64648 7.06055 4.93945C7.35352 5.23242 7.5 5.58594 7.5 6C7.5 6.41406 7.35352 6.76758 7.06055 7.06055C6.76758 7.35352 6.41406 7.5 6 7.5Z" fill="white"/>
</svg>
