<svg width="24" height="24" viewBox="0 0 24 24" fill="none" xmlns="http://www.w3.org/2000/svg">
<path opacity="0.2" d="M19.5 12V18.75C19.5 18.9489 19.421 19.1397 19.2803 19.2803C19.1397 19.421 18.9489 19.5 18.75 19.5H5.25C5.05109 19.5 4.86032 19.421 4.71967 19.2803C4.57902 19.1397 4.5 18.9489 4.5 18.75V12H19.5Z" fill="#D34127"/>
<path d="M20.25 6.74936H16.9613C16.9978 6.71842 17.0353 6.68842 17.0709 6.65561C17.3557 6.40265 17.5851 6.09366 17.745 5.74797C17.9049 5.40228 17.9917 5.02732 18 4.64654C18.0123 4.22999 17.9394 3.81531 17.7856 3.42797C17.6319 3.04063 17.4006 2.6888 17.106 2.39407C16.8113 2.09935 16.4596 1.86796 16.0723 1.7141C15.685 1.56024 15.2703 1.48716 14.8538 1.49936C14.4728 1.50756 14.0977 1.59431 13.7518 1.75417C13.406 1.91404 13.0968 2.14358 12.8438 2.42842C12.4936 2.83426 12.2089 3.29227 12 3.78592C11.7911 3.29227 11.5064 2.83426 11.1562 2.42842C10.9032 2.14358 10.594 1.91404 10.2482 1.75417C9.90232 1.59431 9.52718 1.50756 9.14625 1.49936C8.72969 1.48716 8.31503 1.56024 7.92774 1.7141C7.54044 1.86796 7.18868 2.09935 6.89405 2.39407C6.59941 2.6888 6.36812 3.04063 6.21438 3.42797C6.06064 3.81531 5.98768 4.22999 6 4.64654C6.00833 5.02732 6.09514 5.40228 6.255 5.74797C6.41486 6.09366 6.64434 6.40265 6.92906 6.65561C6.96469 6.68654 7.00219 6.71654 7.03875 6.74936H3.75C3.35218 6.74936 2.97064 6.90739 2.68934 7.1887C2.40804 7.47 2.25 7.85153 2.25 8.24936V11.2494C2.25 11.6472 2.40804 12.0287 2.68934 12.31C2.97064 12.5913 3.35218 12.7494 3.75 12.7494V18.7494C3.75 19.1472 3.90804 19.5287 4.18934 19.81C4.47064 20.0913 4.85218 20.2494 5.25 20.2494H18.75C19.1478 20.2494 19.5294 20.0913 19.8107 19.81C20.092 19.5287 20.25 19.1472 20.25 18.7494V12.7494C20.6478 12.7494 21.0294 12.5913 21.3107 12.31C21.592 12.0287 21.75 11.6472 21.75 11.2494V8.24936C21.75 7.85153 21.592 7.47 21.3107 7.1887C21.0294 6.90739 20.6478 6.74936 20.25 6.74936ZM13.9688 3.42217C14.0875 3.29103 14.2321 3.18586 14.3934 3.11326C14.5547 3.04066 14.7293 3.0022 14.9062 3.00029H14.9522C15.1595 3.00159 15.3645 3.04426 15.5552 3.1258C15.7458 3.20734 15.9183 3.32611 16.0624 3.47515C16.2066 3.62419 16.3195 3.80051 16.3947 3.99377C16.4698 4.18702 16.5056 4.39333 16.5 4.60061C16.4981 4.77751 16.4596 4.95211 16.387 5.11344C16.3144 5.27477 16.2093 5.41935 16.0781 5.53811C15.1884 6.32561 13.7119 6.60311 12.7969 6.70061C12.9094 5.70779 13.2188 4.26498 13.9688 3.42217ZM7.96031 3.45592C8.25088 3.16538 8.64441 3.0013 9.05531 2.99936H9.10125C9.27815 3.00126 9.45275 3.03972 9.61409 3.11232C9.77542 3.18492 9.92 3.29009 10.0388 3.42123C10.8253 4.30998 11.1028 5.78373 11.2003 6.69498C10.2891 6.60123 8.81531 6.31998 7.92656 5.53342C7.79543 5.41467 7.69026 5.27009 7.61766 5.10875C7.54506 4.94742 7.5066 4.77282 7.50469 4.59592C7.49887 4.3852 7.53593 4.1755 7.61361 3.97953C7.69128 3.78357 7.80796 3.60543 7.95656 3.45592H7.96031ZM3.75 8.24936H11.25V11.2494H3.75V8.24936ZM5.25 12.7494H11.25V18.7494H5.25V12.7494ZM18.75 18.7494H12.75V12.7494H18.75V18.7494ZM20.25 11.2494H12.75V8.24936H20.25V11.2494Z" fill="#D34127"/>
</svg>
