<svg width="32" height="32" viewBox="0 0 32 32" fill="none" xmlns="http://www.w3.org/2000/svg">
<path opacity="0.2" d="M23 12V25.2887L21.665 23.25C21.3675 22.7376 20.8976 22.3476 20.3392 22.1494C19.7809 21.9513 19.1702 21.9579 18.6163 22.168C18.0623 22.3782 17.601 22.7783 17.3146 23.297C17.0282 23.8157 16.9353 24.4192 17.0525 25H7V12C7 11.7348 7.10536 11.4804 7.29289 11.2929C7.48043 11.1054 7.73478 11 8 11H22C22.2652 11 22.5196 11.1054 22.7071 11.2929C22.8946 11.4804 23 11.7348 23 12Z" fill="#1F4284"/>
<path d="M16 4.41454V16.0008C16 16.266 15.8946 16.5204 15.7071 16.7079C15.5196 16.8954 15.2652 17.0008 15 17.0008C14.7348 17.0008 14.4804 16.8954 14.2929 16.7079C14.1054 16.5204 14 16.266 14 16.0008V4.41454L11.7075 6.70829C11.6146 6.8012 11.5043 6.8749 11.3829 6.92518C11.2615 6.97546 11.1314 7.00134 11 7.00134C10.7346 7.00134 10.4801 6.89593 10.2925 6.70829C10.1996 6.61538 10.1259 6.50508 10.0756 6.38368C10.0253 6.26229 9.99944 6.13218 9.99944 6.00079C9.99944 5.73542 10.1049 5.48093 10.2925 5.29329L14.2925 1.29329C14.3854 1.20031 14.4957 1.12655 14.6171 1.07623C14.7385 1.0259 14.8686 1 15 1C15.1314 1 15.2615 1.0259 15.3829 1.07623C15.5043 1.12655 15.6146 1.20031 15.7075 1.29329L19.7075 5.29329C19.8951 5.48093 20.0006 5.73542 20.0006 6.00079C20.0006 6.26615 19.8951 6.52065 19.7075 6.70829C19.5199 6.89593 19.2654 7.00134 19 7.00134C18.7346 7.00134 18.4801 6.89593 18.2925 6.70829L16 4.41454ZM24 15.4533V12.0008C24 11.4704 23.7893 10.9616 23.4142 10.5866C23.0391 10.2115 22.5304 10.0008 22 10.0008H20C19.7348 10.0008 19.4804 10.1061 19.2929 10.2937C19.1054 10.4812 19 10.7356 19 11.0008C19 11.266 19.1054 11.5204 19.2929 11.7079C19.4804 11.8954 19.7348 12.0008 20 12.0008H22V22.0508C21.4036 21.4416 20.6055 21.071 19.7552 21.0085C18.905 20.9461 18.0612 21.1961 17.3823 21.7117C16.7033 22.2272 16.2359 22.9728 16.0677 23.8086C15.8995 24.6443 16.0421 25.5127 16.4688 26.2508L16.4988 26.2983L19.2812 30.5483C19.4265 30.7702 19.6539 30.9254 19.9135 30.9797C20.1731 31.034 20.4437 30.9829 20.6656 30.8377C20.8876 30.6925 21.0428 30.465 21.097 30.2054C21.1513 29.9458 21.1002 29.6752 20.955 29.4533L18.1887 25.2295C17.9927 24.8833 17.9421 24.4733 18.0483 24.0898C18.1545 23.7062 18.4087 23.3806 18.755 23.1845C19.1013 22.9884 19.5113 22.9379 19.8948 23.0441C20.2783 23.1503 20.6039 23.4045 20.8 23.7508C20.8087 23.767 20.8188 23.7833 20.8288 23.7983L22.1637 25.837C22.2818 26.017 22.4547 26.1541 22.6568 26.228C22.8589 26.3018 23.0795 26.3085 23.2857 26.247C23.492 26.1855 23.6729 26.0591 23.8015 25.8866C23.9302 25.7141 23.9998 25.5047 24 25.2895V18.0008C24.9426 18.8733 25.6954 19.9305 26.2115 21.1067C26.7276 22.2828 26.996 23.5526 27 24.837V30.0008C27 30.266 27.1054 30.5204 27.2929 30.7079C27.4804 30.8954 27.7348 31.0008 28 31.0008C28.2652 31.0008 28.5196 30.8954 28.7071 30.7079C28.8946 30.5204 29 30.266 29 30.0008V24.832C28.9943 22.9796 28.5358 21.1566 27.6643 19.5219C26.7928 17.8873 25.5349 16.4905 24 15.4533ZM10 10.0008H8C7.46957 10.0008 6.96086 10.2115 6.58579 10.5866C6.21071 10.9616 6 11.4704 6 12.0008V25.0008C6 25.266 6.10536 25.5204 6.29289 25.7079C6.48043 25.8954 6.73478 26.0008 7 26.0008C7.26522 26.0008 7.51957 25.8954 7.70711 25.7079C7.89464 25.5204 8 25.266 8 25.0008V12.0008H10C10.2652 12.0008 10.5196 11.8954 10.7071 11.7079C10.8946 11.5204 11 11.266 11 11.0008C11 10.7356 10.8946 10.4812 10.7071 10.2937C10.5196 10.1061 10.2652 10.0008 10 10.0008Z" fill="#1F4284"/>
</svg>
