<svg width="30" height="30" viewBox="0 0 30 30" fill="none" xmlns="http://www.w3.org/2000/svg">
<path d="M25.3125 4.6875H4.6875C4.16016 4.6875 3.71582 4.86816 3.35449 5.22949C2.99316 5.59082 2.8125 6.03516 2.8125 6.5625V23.4375C2.8125 23.9648 2.99316 24.4092 3.35449 24.7705C3.71582 25.1318 4.16016 25.3125 4.6875 25.3125H25.3125C25.8398 25.3125 26.2842 25.1318 26.6455 24.7705C27.0068 24.4092 27.1875 23.9648 27.1875 23.4375V6.5625C27.1875 6.03516 27.0068 5.59082 26.6455 5.22949C26.2842 4.86816 25.8398 4.6875 25.3125 4.6875ZM18.2812 10.3125C18.6719 10.3125 19.0039 10.4492 19.2773 10.7227C19.5508 10.9961 19.6875 11.3281 19.6875 11.7188C19.6875 12.1094 19.5508 12.4414 19.2773 12.7148C19.0039 12.9883 18.6719 13.125 18.2812 13.125C17.8906 13.125 17.5586 12.9883 17.2852 12.7148C17.0117 12.4414 16.875 12.1094 16.875 11.7188C16.875 11.3281 17.0117 10.9961 17.2852 10.7227C17.5586 10.4492 17.8906 10.3125 18.2812 10.3125ZM25.3125 23.4375H4.6875V18.8379L10.1074 13.3887C10.2051 13.3105 10.3076 13.2471 10.415 13.1982C10.5225 13.1494 10.6445 13.125 10.7812 13.125C10.918 13.125 11.04 13.1494 11.1475 13.1982C11.2549 13.2471 11.3574 13.3105 11.4551 13.3887L19.3359 21.2988C19.4141 21.377 19.5117 21.4404 19.6289 21.4893C19.7461 21.5381 19.873 21.5625 20.0098 21.5625C20.2637 21.5625 20.4834 21.4697 20.6689 21.2842C20.8545 21.0986 20.9473 20.8789 20.9473 20.625C20.9473 20.4883 20.9229 20.3662 20.874 20.2588C20.8252 20.1514 20.752 20.0488 20.6543 19.9512L18.6035 17.9004L20.2734 16.2012C20.3516 16.123 20.4492 16.0596 20.5664 16.0107C20.6836 15.9619 20.8105 15.9375 20.9473 15.9375C21.0645 15.9375 21.1816 15.9619 21.2988 16.0107C21.416 16.0596 21.5137 16.123 21.5918 16.2012L25.3125 19.9219V23.4375Z" fill="#D1D5DB"/>
</svg>
