<svg width="24" height="24" viewBox="0 0 24 24" fill="none" xmlns="http://www.w3.org/2000/svg">
<path opacity="0.2" d="M13.5 13.0981L15 16.4993H9L10.5 13.0981C9.92808 12.7679 9.48109 12.2582 9.22836 11.6481C8.97564 11.0379 8.9313 10.3614 9.10222 9.72354C9.27315 9.08564 9.64978 8.52197 10.1737 8.11994C10.6977 7.71791 11.3396 7.5 12 7.5C12.6604 7.5 13.3024 7.71791 13.8263 8.11994C14.3502 8.52197 14.7269 9.08564 14.8978 9.72354C15.0687 10.3614 15.0244 11.0379 14.7716 11.6481C14.5189 12.2582 14.0719 12.7679 13.5 13.0981Z" fill="#D34127"/>
<path d="M12 2.25C10.0716 2.25 8.18657 2.82183 6.58319 3.89317C4.97982 4.96451 3.73013 6.48726 2.99218 8.26884C2.25422 10.0504 2.06114 12.0108 2.43735 13.9021C2.81355 15.7934 3.74215 17.5307 5.10571 18.8943C6.46928 20.2579 8.20656 21.1865 10.0979 21.5627C11.9892 21.9389 13.9496 21.7458 15.7312 21.0078C17.5127 20.2699 19.0355 19.0202 20.1068 17.4168C21.1782 15.8134 21.75 13.9284 21.75 12C21.7473 9.41498 20.7192 6.93661 18.8913 5.10872C17.0634 3.28084 14.585 2.25273 12 2.25ZM12 20.25C10.3683 20.25 8.77326 19.7661 7.41655 18.8596C6.05984 17.9531 5.00242 16.6646 4.378 15.1571C3.75358 13.6496 3.5902 11.9908 3.90853 10.3905C4.22685 8.79016 5.01259 7.32015 6.16637 6.16637C7.32016 5.01259 8.79017 4.22685 10.3905 3.90852C11.9909 3.59019 13.6497 3.75357 15.1571 4.37799C16.6646 5.00242 17.9531 6.05984 18.8596 7.41655C19.7661 8.77325 20.25 10.3683 20.25 12C20.2475 14.1873 19.3775 16.2843 17.8309 17.8309C16.2843 19.3775 14.1873 20.2475 12 20.25ZM15.75 10.5C15.7501 9.87061 15.5919 9.25132 15.2898 8.69918C14.9876 8.14704 14.5514 7.67982 14.0213 7.34058C13.4912 7.00133 12.8842 6.80097 12.2563 6.75796C11.6284 6.71495 10.9997 6.83068 10.4283 7.09447C9.85684 7.35826 9.36099 7.76164 8.98642 8.26743C8.61185 8.77322 8.3706 9.36515 8.28492 9.98867C8.19923 10.6122 8.27186 11.2473 8.49612 11.8353C8.72037 12.4234 9.08903 12.9456 9.56813 13.3538L8.31375 16.1972C8.26337 16.3114 8.24227 16.4363 8.25237 16.5607C8.26247 16.6851 8.30345 16.805 8.3716 16.9095C8.43975 17.0141 8.53291 17.1 8.64264 17.1594C8.75237 17.2189 8.8752 17.25 9 17.25H15C15.1248 17.25 15.2476 17.2189 15.3574 17.1594C15.4671 17.1 15.5603 17.0141 15.6284 16.9095C15.6966 16.805 15.7375 16.6851 15.7476 16.5607C15.7577 16.4363 15.7366 16.3114 15.6863 16.1972L14.4319 13.3538C14.8443 13.0012 15.1757 12.5637 15.4032 12.0711C15.6307 11.5785 15.749 11.0426 15.75 10.5ZM12.8138 13.4062L13.845 15.7547H10.1503L11.1816 13.4062C11.258 13.2371 11.269 13.0455 11.2123 12.8687C11.1557 12.6919 11.0355 12.5424 10.875 12.4491C10.4461 12.2014 10.1108 11.8191 9.92128 11.3615C9.73173 10.9039 9.69848 10.3966 9.82667 9.91816C9.95486 9.43974 10.2373 9.01698 10.6303 8.71546C11.0232 8.41394 11.5047 8.25051 12 8.25051C12.4953 8.25051 12.9768 8.41394 13.3697 8.71546C13.7627 9.01698 14.0451 9.43974 14.1733 9.91816C14.3015 10.3966 14.2683 10.9039 14.0787 11.3615C13.8892 11.8191 13.5539 12.2014 13.125 12.4491C12.9637 12.5416 12.8425 12.6908 12.785 12.8677C12.7275 13.0446 12.7377 13.2365 12.8138 13.4062Z" fill="#D34127"/>
</svg>
