<svg width="16" height="16" viewBox="0 0 16 16" fill="none" xmlns="http://www.w3.org/2000/svg">
<path opacity="0.2" d="M11.5 5C11.5 8.5 8 10.5 8 10.5C8 10.5 4.5 8.5 4.5 5C4.5 4.07174 4.86875 3.1815 5.52513 2.52513C6.1815 1.86875 7.07174 1.5 8 1.5C8.92826 1.5 9.8185 1.86875 10.4749 2.52513C11.1313 3.1815 11.5 4.07174 11.5 5Z" fill="#1F4284"/>
<path d="M7 5C7 4.80222 7.05865 4.60888 7.16853 4.44443C7.27841 4.27998 7.43459 4.15181 7.61732 4.07612C7.80004 4.00043 8.00111 3.98063 8.19509 4.01921C8.38907 4.0578 8.56725 4.15304 8.70711 4.29289C8.84696 4.43275 8.9422 4.61093 8.98079 4.80491C9.01937 4.99889 8.99957 5.19996 8.92388 5.38268C8.84819 5.56541 8.72002 5.72159 8.55557 5.83147C8.39112 5.94135 8.19778 6 8 6C7.73478 6 7.48043 5.89464 7.29289 5.70711C7.10536 5.51957 7 5.26522 7 5ZM4 5C4 3.93913 4.42143 2.92172 5.17157 2.17157C5.92172 1.42143 6.93913 1 8 1C9.06087 1 10.0783 1.42143 10.8284 2.17157C11.5786 2.92172 12 3.93913 12 5C12 8.74687 8.40125 10.8462 8.25 10.9344C8.17444 10.9776 8.08891 11.0003 8.00187 11.0003C7.91484 11.0003 7.82931 10.9776 7.75375 10.9344C7.59875 10.8462 4 8.75 4 5ZM5 5C5 7.6375 7.24 9.38813 8 9.90625C8.75938 9.38875 11 7.6375 11 5C11 4.20435 10.6839 3.44129 10.1213 2.87868C9.55871 2.31607 8.79565 2 8 2C7.20435 2 6.44129 2.31607 5.87868 2.87868C5.31607 3.44129 5 4.20435 5 5ZM12.6731 9.22688C12.5501 9.18622 12.416 9.19494 12.2993 9.25119C12.1825 9.30744 12.0921 9.40683 12.0472 9.52841C12.0023 9.64998 12.0064 9.78425 12.0586 9.90289C12.1107 10.0215 12.2069 10.1153 12.3269 10.1644C13.3587 10.5463 14 11.0575 14 11.5C14 12.335 11.7175 13.5 8 13.5C4.2825 13.5 2 12.335 2 11.5C2 11.0575 2.64125 10.5463 3.67313 10.165C3.79307 10.1159 3.88926 10.0222 3.94143 9.90351C3.9936 9.78487 3.99766 9.65061 3.95275 9.52903C3.90785 9.40746 3.8175 9.30807 3.70074 9.25181C3.58398 9.19556 3.44994 9.18684 3.32687 9.2275C1.82625 9.78063 1 10.5881 1 11.5C1 13.4487 4.60687 14.5 8 14.5C11.3931 14.5 15 13.4487 15 11.5C15 10.5881 14.1737 9.78063 12.6731 9.22688Z" fill="#1F4284"/>
</svg>
