<svg width="24" height="24" viewBox="0 0 24 24" fill="none" xmlns="http://www.w3.org/2000/svg">
<path d="M12 2.25C10.6562 2.25 9.39062 2.50781 8.20312 3.02344C7.01562 3.52344 5.98047 4.21484 5.09766 5.09766C4.21484 5.98047 3.52344 7.01562 3.02344 8.20312C2.50781 9.39062 2.25 10.6562 2.25 12C2.25 13.3438 2.50781 14.6094 3.02344 15.7969C3.52344 16.9844 4.21484 18.0195 5.09766 18.9023C5.98047 19.7852 7.01562 20.4766 8.20312 20.9766C9.39062 21.4922 10.6562 21.75 12 21.75C13.3438 21.75 14.6094 21.4922 15.7969 20.9766C16.9844 20.4766 18.0195 19.7852 18.9023 18.9023C19.7852 18.0195 20.4766 16.9844 20.9766 15.7969C21.4922 14.6094 21.75 13.3438 21.75 12C21.75 10.6562 21.4922 9.39062 20.9766 8.20312C20.4609 7.01562 19.7656 5.98438 18.8906 5.10938C18.0156 4.23438 16.9844 3.53906 15.7969 3.02344C14.6094 2.50781 13.3438 2.25 12 2.25ZM12 20.25C10.8594 20.25 9.78906 20.0312 8.78906 19.5938C7.78906 19.1719 6.91406 18.5859 6.16406 17.8359C5.41406 17.0859 4.82812 16.2109 4.40625 15.2109C3.96875 14.2109 3.75 13.1406 3.75 12C3.75 10.8594 3.96875 9.78906 4.40625 8.78906C4.82812 7.78906 5.41406 6.91406 6.16406 6.16406C6.91406 5.41406 7.78906 4.82812 8.78906 4.40625C9.78906 3.96875 10.8594 3.75 12 3.75C13.1406 3.75 14.2109 3.96875 15.2109 4.40625C16.2109 4.82812 17.0859 5.41406 17.8359 6.16406C18.5859 6.91406 19.1719 7.78906 19.5938 8.78906C20.0312 9.78906 20.25 10.8594 20.25 12C20.25 13.1406 20.0312 14.2109 19.5938 15.2109C19.1719 16.2109 18.5859 17.0859 17.8359 17.8359C17.0859 18.5859 16.2109 19.1719 15.2109 19.5938C14.2109 20.0312 13.1406 20.25 12 20.25ZM15.75 13.875C15.75 14.5938 15.4922 15.2109 14.9766 15.7266C14.4609 16.2422 13.8438 16.5 13.125 16.5H12.75V17.25C12.75 17.4531 12.6758 17.6289 12.5273 17.7773C12.3789 17.9258 12.2031 18 12 18C11.7969 18 11.6211 17.9258 11.4727 17.7773C11.3242 17.6289 11.25 17.4531 11.25 17.25V16.5H9.75C9.54688 16.5 9.37109 16.4258 9.22266 16.2773C9.07422 16.1289 9 15.9531 9 15.75C9 15.5469 9.07422 15.3711 9.22266 15.2227C9.37109 15.0742 9.54688 15 9.75 15H13.125C13.4375 15 13.7031 14.8906 13.9219 14.6719C14.1406 14.4531 14.25 14.1875 14.25 13.875C14.25 13.5625 14.1406 13.2969 13.9219 13.0781C13.7031 12.8594 13.4375 12.75 13.125 12.75H10.875C10.1562 12.75 9.53906 12.4922 9.02344 11.9766C8.50781 11.4609 8.25 10.8438 8.25 10.125C8.25 9.40625 8.50781 8.78906 9.02344 8.27344C9.53906 7.75781 10.1562 7.5 10.875 7.5H11.25V6.75C11.25 6.54688 11.3242 6.37109 11.4727 6.22266C11.6211 6.07422 11.7969 6 12 6C12.2031 6 12.3789 6.07422 12.5273 6.22266C12.6758 6.37109 12.75 6.54688 12.75 6.75V7.5H14.25C14.4531 7.5 14.6289 7.57422 14.7773 7.72266C14.9258 7.87109 15 8.04688 15 8.25C15 8.45312 14.9258 8.62891 14.7773 8.77734C14.6289 8.92578 14.4531 9 14.25 9H10.875C10.5625 9 10.2969 9.10938 10.0781 9.32812C9.85938 9.54688 9.75 9.8125 9.75 10.125C9.75 10.4375 9.85938 10.7031 10.0781 10.9219C10.2969 11.1406 10.5625 11.25 10.875 11.25H13.125C13.8438 11.25 14.4609 11.5078 14.9766 12.0234C15.4922 12.5391 15.75 13.1562 15.75 13.875Z" fill="#1F4284"/>
</svg>
