<svg width="20" height="20" viewBox="0 0 20 20" fill="none" xmlns="http://www.w3.org/2000/svg">
<path d="M17.5977 12.9688C17.2591 12.3828 17.002 11.6797 16.8262 10.8594C16.6504 10.0391 16.5625 9.1276 16.5625 8.125C16.5625 7.21354 16.3932 6.36068 16.0547 5.56641C15.7031 4.77214 15.2311 4.07878 14.6387 3.48633C14.0462 2.89388 13.3529 2.42188 12.5586 2.07031C11.7643 1.73177 10.9115 1.5625 10 1.5625C9.08854 1.5625 8.23568 1.73177 7.44141 2.07031C6.64714 2.42188 5.95378 2.89388 5.36133 3.48633C4.76888 4.07878 4.29688 4.77214 3.94531 5.56641C3.60677 6.36068 3.4375 7.21354 3.4375 8.125C3.4375 9.1276 3.34961 10.0391 3.17383 10.8594C2.99805 11.6797 2.74089 12.3828 2.40234 12.9688C2.33724 13.0729 2.28516 13.1934 2.24609 13.3301C2.20703 13.4668 2.1875 13.6068 2.1875 13.75C2.1875 13.8932 2.20703 14.0332 2.24609 14.1699C2.28516 14.3066 2.33724 14.4271 2.40234 14.5312C2.53255 14.7656 2.71484 14.9544 2.94922 15.0977C3.18359 15.2409 3.44401 15.3125 3.73047 15.3125C3.74349 15.3125 3.75 15.3125 3.75 15.3125H6.58203C6.66016 16.1979 7.02474 16.9401 7.67578 17.5391C8.32682 18.138 9.10156 18.4375 10 18.4375C10.8984 18.4375 11.6732 18.138 12.3242 17.5391C12.9753 16.9401 13.3398 16.2044 13.418 15.332V15.3125H16.25C16.5365 15.3125 16.8001 15.2409 17.041 15.0977C17.2819 14.9544 17.4674 14.7656 17.5977 14.5312C17.6628 14.4141 17.7148 14.2904 17.7539 14.1602C17.793 14.0299 17.8125 13.8932 17.8125 13.75C17.8125 13.6068 17.793 13.4668 17.7539 13.3301C17.7148 13.1934 17.6628 13.0664 17.5977 12.9492V12.9688ZM10 16.5625C9.6224 16.5625 9.29036 16.4453 9.00391 16.2109C8.71745 15.9766 8.54167 15.6836 8.47656 15.332V15.3125H11.5234C11.4583 15.6771 11.2826 15.9766 10.9961 16.2109C10.7096 16.4453 10.3776 16.5625 10 16.5625ZM4.27734 13.4375C4.61589 12.7344 4.87305 11.9368 5.04883 11.0449C5.22461 10.153 5.3125 9.17969 5.3125 8.125C5.3125 7.47396 5.4362 6.86849 5.68359 6.30859C5.93099 5.73568 6.26628 5.23763 6.68945 4.81445C7.11263 4.39128 7.61068 4.05599 8.18359 3.80859C8.74349 3.5612 9.34896 3.4375 10 3.4375C10.651 3.4375 11.2565 3.5612 11.8164 3.80859C12.3893 4.05599 12.8874 4.39128 13.3105 4.81445C13.7337 5.23763 14.069 5.73568 14.3164 6.30859C14.5638 6.86849 14.6875 7.47396 14.6875 8.125C14.6875 9.17969 14.7754 10.153 14.9512 11.0449C15.127 11.9368 15.3841 12.7344 15.7227 13.4375H4.27734Z" fill="#F8F9FA"/>
</svg>
