<svg width="22" height="22" viewBox="0 0 22 22" fill="none" xmlns="http://www.w3.org/2000/svg">
<path opacity="0.2" d="M15.5334 9.00227L17.5314 11.0003L10.4794 18.042C9.70368 18.8052 8.65782 19.231 7.56963 19.2265C6.48144 19.2221 5.43908 18.7878 4.66961 18.0184C3.90014 17.2489 3.46589 16.2065 3.46146 15.1184C3.45703 14.0302 3.88277 12.9843 4.64595 12.2086L13.1804 3.55555C13.6962 3.03976 14.3957 2.75 15.1252 2.75C15.8546 2.75 16.5542 3.03976 17.0699 3.55555C17.5857 4.07133 17.8755 4.77089 17.8755 5.50031C17.8755 6.22974 17.5857 6.9293 17.0699 7.44508L15.5334 9.00227Z" fill="#1F4284"/>
<path d="M18.0178 10.5139C18.0818 10.5777 18.1325 10.6535 18.1671 10.737C18.2017 10.8205 18.2195 10.9099 18.2195 11.0003C18.2195 11.0906 18.2017 11.1801 18.1671 11.2635C18.1325 11.347 18.0818 11.4228 18.0178 11.4867L10.9667 18.5335C10.064 19.4361 8.83973 19.9431 7.56323 19.943C6.28673 19.943 5.06255 19.4358 4.15998 18.5331C3.25742 17.6304 2.75041 16.4062 2.75049 15.1297C2.75057 13.8532 3.25773 12.629 4.16041 11.7264L12.6906 3.07081C13.335 2.42569 14.2093 2.06298 15.1212 2.0625C16.0331 2.06202 16.9078 2.42379 17.5529 3.06824C18.198 3.71268 18.5607 4.58701 18.5612 5.49887C18.5617 6.41074 18.1999 7.28545 17.5555 7.93058L9.02362 16.5862C8.63615 16.9737 8.11064 17.1913 7.56268 17.1913C7.01472 17.1913 6.48921 16.9737 6.10174 16.5862C5.71428 16.1987 5.4966 15.6732 5.4966 15.1253C5.4966 14.5773 5.71428 14.0518 6.10174 13.6643L13.2603 6.3923C13.323 6.3254 13.3985 6.27173 13.4823 6.23443C13.566 6.19713 13.6564 6.17697 13.7481 6.17512C13.8398 6.17328 13.9309 6.18979 14.0161 6.22368C14.1013 6.25758 14.1788 6.30818 14.2442 6.37249C14.3095 6.43681 14.3613 6.51355 14.3966 6.5982C14.4318 6.68285 14.4498 6.77369 14.4494 6.86538C14.449 6.95707 14.4303 7.04776 14.3943 7.1321C14.3584 7.21645 14.3059 7.29275 14.24 7.35652L7.08057 14.6363C7.01647 14.6999 6.96552 14.7755 6.93063 14.8588C6.89575 14.942 6.87761 15.0314 6.87725 15.1217C6.87689 15.212 6.89432 15.3014 6.92854 15.385C6.96276 15.4686 7.01311 15.5446 7.0767 15.6087C7.1403 15.6728 7.21589 15.7237 7.29918 15.7586C7.38246 15.7935 7.4718 15.8116 7.56209 15.812C7.65239 15.8123 7.74187 15.7949 7.82543 15.7607C7.90898 15.7265 7.98498 15.6761 8.04908 15.6125L16.5801 6.9612C16.9676 6.57454 17.1856 6.04979 17.1861 5.50239C17.1867 4.955 16.9698 4.4298 16.5831 4.04234C16.1964 3.65487 15.6717 3.43688 15.1243 3.43632C14.5769 3.43575 14.0517 3.65266 13.6642 4.03933L5.1358 12.6915C4.81631 13.0105 4.56278 13.3893 4.38967 13.8063C4.21657 14.2232 4.12729 14.6702 4.12693 15.1217C4.12657 15.5731 4.21514 16.0203 4.38758 16.4375C4.56002 16.8547 4.81295 17.2339 5.13194 17.5534C5.45092 17.8729 5.82971 18.1265 6.24668 18.2996C6.66364 18.4727 7.11062 18.5619 7.56209 18.5623C8.01356 18.5627 8.46068 18.4741 8.87792 18.3017C9.29517 18.1292 9.67436 17.8763 9.99385 17.5573L17.0459 10.5104C17.1753 10.382 17.3503 10.3103 17.5326 10.3109C17.7148 10.3116 17.8894 10.3846 18.0178 10.5139Z" fill="#1F4284"/>
</svg>
