<svg width="36" height="40" viewBox="0 0 36 40" fill="none" xmlns="http://www.w3.org/2000/svg">
<path d="M6.1875 18.875H29.8125C29.9766 18.875 30.1113 18.8223 30.2168 18.7168C30.3223 18.6113 30.375 18.4766 30.375 18.3125V14.375C30.375 14.2109 30.3457 14.0645 30.2871 13.9355C30.2285 13.8066 30.1523 13.6836 30.0586 13.5664L22.1836 5.69141C22.0664 5.59766 21.9434 5.52148 21.8145 5.46289C21.6855 5.4043 21.5391 5.375 21.375 5.375H7.875C7.24219 5.375 6.70898 5.5918 6.27539 6.02539C5.8418 6.45898 5.625 6.99219 5.625 7.625V18.3125C5.625 18.4766 5.67773 18.6113 5.7832 18.7168C5.88867 18.8223 6.02344 18.875 6.1875 18.875ZM21.375 8.1875L27.5625 14.375H21.375V8.1875ZM31.5 23.4453C31.4766 23.75 31.3535 24.002 31.1309 24.2012C30.9082 24.4004 30.6445 24.5 30.3398 24.5H27V26.75H29.2148C29.5195 26.75 29.7832 26.8496 30.0059 27.0488C30.2285 27.248 30.3516 27.5 30.375 27.8047C30.375 27.8047 30.375 27.8105 30.375 27.8223C30.375 27.834 30.375 27.8516 30.375 27.875C30.375 28.1797 30.2637 28.4434 30.041 28.666C29.8184 28.8887 29.5547 29 29.25 29H27V31.2148C27 31.5195 26.9004 31.7832 26.7012 32.0059C26.502 32.2285 26.25 32.3516 25.9453 32.375C25.9453 32.375 25.9395 32.375 25.9277 32.375C25.916 32.375 25.8984 32.375 25.875 32.375C25.5703 32.375 25.3066 32.2637 25.084 32.041C24.8613 31.8184 24.75 31.5547 24.75 31.25V23.375C24.75 23.0703 24.8613 22.8066 25.084 22.584C25.3066 22.3613 25.5703 22.25 25.875 22.25H30.375C30.6797 22.25 30.9434 22.3613 31.166 22.584C31.3887 22.8066 31.5 23.0703 31.5 23.375C31.5 23.3984 31.5 23.416 31.5 23.4277C31.5 23.4395 31.5 23.4453 31.5 23.4453ZM9 22.25H6.75C6.44531 22.25 6.18164 22.3613 5.95898 22.584C5.73633 22.8066 5.625 23.0703 5.625 23.375V31.2148C5.625 31.5195 5.72461 31.7832 5.92383 32.0059C6.12305 32.2285 6.375 32.3516 6.67969 32.375C6.67969 32.375 6.68555 32.375 6.69727 32.375C6.70898 32.375 6.72656 32.375 6.75 32.375C7.05469 32.375 7.31836 32.2637 7.54102 32.041C7.76367 31.8184 7.875 31.5547 7.875 31.25V30.125H8.92969C9.98438 30.125 10.9102 29.7559 11.707 29.0176C12.5039 28.2793 12.9141 27.3711 12.9375 26.293C12.9375 26.293 12.9375 26.2812 12.9375 26.2578C12.9375 26.2344 12.9375 26.2109 12.9375 26.1875C12.9375 25.1094 12.5508 24.1836 11.7773 23.4102C11.0039 22.6367 10.0781 22.25 9 22.25ZM8.96484 27.875H7.875V24.5H9C9.46875 24.5 9.86719 24.6641 10.1953 24.9922C10.5234 25.3203 10.6875 25.7188 10.6875 26.1875C10.6875 26.2109 10.6875 26.2402 10.6875 26.2754C10.6875 26.3105 10.6875 26.3398 10.6875 26.3633C10.6406 26.7852 10.4531 27.1426 10.125 27.4355C9.79688 27.7285 9.41016 27.875 8.96484 27.875ZM18 22.25H15.75C15.4453 22.25 15.1816 22.3613 14.959 22.584C14.7363 22.8066 14.625 23.0703 14.625 23.375V31.25C14.625 31.5547 14.7363 31.8184 14.959 32.041C15.1816 32.2637 15.4453 32.375 15.75 32.375H17.8945C19.2773 32.375 20.4785 31.8945 21.498 30.9336C22.5176 29.9727 23.0391 28.8008 23.0625 27.418C23.0625 27.418 23.0625 27.4062 23.0625 27.3828C23.0625 27.3594 23.0625 27.3359 23.0625 27.3125C23.0625 25.9062 22.5703 24.7109 21.5859 23.7266C20.6016 22.7422 19.4062 22.25 18 22.25ZM17.9297 30.125H16.875V24.5H18C18.7734 24.5 19.4355 24.7754 19.9863 25.3262C20.5371 25.877 20.8125 26.5391 20.8125 27.3125C20.8125 27.3359 20.8125 27.3535 20.8125 27.3652C20.8125 27.377 20.8125 27.3945 20.8125 27.418C20.7891 28.1914 20.4961 28.8359 19.9336 29.3516C19.3711 29.8672 18.7031 30.125 17.9297 30.125Z" fill="#FED7AA"/>
</svg>
