<svg width="24" height="24" viewBox="0 0 24 24" fill="none" xmlns="http://www.w3.org/2000/svg">
<path opacity="0.2" d="M17.9233 8.92319V15.6924L12.0002 19.077L6.07715 15.6924V8.92319L12.0002 5.53857L17.9233 8.92319Z" fill="#1F4284"/>
<path d="M23 3.84615V8.07692C23 8.30134 22.9109 8.51656 22.7522 8.67524C22.5935 8.83393 22.3783 8.92308 22.1538 8.92308C21.9294 8.92308 21.7142 8.83393 21.5555 8.67524C21.3968 8.51656 21.3077 8.30134 21.3077 8.07692V4.69231H17.9231C17.6987 4.69231 17.4834 4.60316 17.3248 4.44447C17.1661 4.28579 17.0769 4.07057 17.0769 3.84615C17.0769 3.62174 17.1661 3.40652 17.3248 3.24783C17.4834 3.08915 17.6987 3 17.9231 3H22.1538C22.3783 3 22.5935 3.08915 22.7522 3.24783C22.9109 3.40652 23 3.62174 23 3.84615ZM6.07692 19.9231H2.69231V16.5385C2.69231 16.314 2.60316 16.0988 2.44447 15.9401C2.28579 15.7815 2.07057 15.6923 1.84615 15.6923C1.62174 15.6923 1.40652 15.7815 1.24783 15.9401C1.08915 16.0988 1 16.314 1 16.5385V20.7692C1 20.9936 1.08915 21.2089 1.24783 21.3676C1.40652 21.5262 1.62174 21.6154 1.84615 21.6154H6.07692C6.30134 21.6154 6.51656 21.5262 6.67524 21.3676C6.83393 21.2089 6.92308 20.9936 6.92308 20.7692C6.92308 20.5448 6.83393 20.3296 6.67524 20.1709C6.51656 20.0122 6.30134 19.9231 6.07692 19.9231ZM22.1538 15.6923C21.9294 15.6923 21.7142 15.7815 21.5555 15.9401C21.3968 16.0988 21.3077 16.314 21.3077 16.5385V19.9231H17.9231C17.6987 19.9231 17.4834 20.0122 17.3248 20.1709C17.1661 20.3296 17.0769 20.5448 17.0769 20.7692C17.0769 20.9936 17.1661 21.2089 17.3248 21.3676C17.4834 21.5262 17.6987 21.6154 17.9231 21.6154H22.1538C22.3783 21.6154 22.5935 21.5262 22.7522 21.3676C22.9109 21.2089 23 20.9936 23 20.7692V16.5385C23 16.314 22.9109 16.0988 22.7522 15.9401C22.5935 15.7815 22.3783 15.6923 22.1538 15.6923ZM1.84615 8.92308C2.07057 8.92308 2.28579 8.83393 2.44447 8.67524C2.60316 8.51656 2.69231 8.30134 2.69231 8.07692V4.69231H6.07692C6.30134 4.69231 6.51656 4.60316 6.67524 4.44447C6.83393 4.28579 6.92308 4.07057 6.92308 3.84615C6.92308 3.62174 6.83393 3.40652 6.67524 3.24783C6.51656 3.08915 6.30134 3 6.07692 3H1.84615C1.62174 3 1.40652 3.08915 1.24783 3.24783C1.08915 3.40652 1 3.62174 1 3.84615V8.07692C1 8.30134 1.08915 8.51656 1.24783 8.67524C1.40652 8.83393 1.62174 8.92308 1.84615 8.92308ZM18.3462 16.4327L12.4231 19.8173C12.2952 19.8904 12.1505 19.9288 12.0032 19.9288C11.8559 19.9288 11.7111 19.8904 11.5833 19.8173L5.65385 16.4327C5.52409 16.3578 5.41655 16.2498 5.34222 16.1197C5.26789 15.9896 5.22943 15.8421 5.23077 15.6923V8.92308C5.22943 8.77326 5.26789 8.62577 5.34222 8.49569C5.41655 8.36561 5.52409 8.2576 5.65385 8.18269L11.5769 4.79808C11.7048 4.72498 11.8495 4.68654 11.9968 4.68654C12.1441 4.68654 12.2889 4.72498 12.4167 4.79808L18.3398 8.18269C18.4696 8.2576 18.5771 8.36561 18.6514 8.49569C18.7258 8.62577 18.7642 8.77326 18.7629 8.92308V15.6923C18.7649 15.8415 18.7274 15.9886 18.6542 16.1186C18.581 16.2486 18.4747 16.357 18.3462 16.4327ZM7.78192 8.92308L12 11.3336L16.2181 8.92308L12 6.5126L7.78192 8.92308ZM6.92308 15.2015L11.1538 17.6184V12.7985L6.92308 10.3816V15.2015ZM17.0769 15.2015V10.3816L12.8462 12.7985V17.6184L17.0769 15.2015Z" fill="#1F4284"/>
</svg>
