<svg width="8" height="8" viewBox="0 0 8 8" fill="none" xmlns="http://www.w3.org/2000/svg">
<mask id="path-1-inside-1_525_122" fill="white">
<path d="M0 4C0 1.79086 1.79086 0 4 0C6.20914 0 8 1.79086 8 4C8 6.20914 6.20914 8 4 8C1.79086 8 0 6.20914 0 4Z"/>
</mask>
<path d="M0 4C0 1.79086 1.79086 0 4 0C6.20914 0 8 1.79086 8 4C8 6.20914 6.20914 8 4 8C1.79086 8 0 6.20914 0 4Z" fill="#D34127"/>
<path d="M0 4M8 4M8 4M0 4M4 0M8 4M4 8M0 4M4 8V6C2.89543 6 2 5.10457 2 4H0H-2C-2 7.31371 0.686292 10 4 10V8ZM8 4H6C6 5.10457 5.10457 6 4 6V8V10C7.31371 10 10 7.31371 10 4H8ZM4 0V2C5.10457 2 6 2.89543 6 4H8H10C10 0.686292 7.31371 -2 4 -2V0ZM4 0V-2C0.686292 -2 -2 0.686292 -2 4H0H2C2 2.89543 2.89543 2 4 2V0Z" fill="black" fill-opacity="0.24" mask="url(#path-1-inside-1_525_122)"/>
</svg>
