<svg width="22" height="22" viewBox="0 0 22 22" fill="none" xmlns="http://www.w3.org/2000/svg">
<path opacity="0.2" d="M16.5 9.625C16.5 10.9847 16.0968 12.314 15.3414 13.4445C14.5859 14.5751 13.5122 15.4563 12.256 15.9767C10.9997 16.497 9.61738 16.6332 8.28376 16.3679C6.95014 16.1026 5.72513 15.4478 4.76364 14.4864C3.80216 13.5249 3.14738 12.2999 2.8821 10.9662C2.61683 9.63263 2.75298 8.25029 3.27333 6.99405C3.79368 5.73781 4.67487 4.66408 5.80546 3.90865C6.93605 3.15321 8.26526 2.75 9.625 2.75C10.5278 2.75 11.4218 2.92783 12.256 3.27333C13.0901 3.61883 13.848 4.12524 14.4864 4.76364C15.1248 5.40204 15.6312 6.15994 15.9767 6.99405C16.3222 7.82816 16.5 8.72216 16.5 9.625Z" fill="#1F4284"/>
<path d="M19.7365 18.7635L15.4345 14.4615C16.6838 12.9631 17.3074 11.0407 17.1755 9.09426C17.0435 7.14782 16.1663 5.32718 14.7261 4.0111C13.286 2.69501 11.3939 1.98481 9.44352 2.02825C7.4931 2.07168 5.63451 2.8654 4.2544 4.24429C2.87429 5.62318 2.07893 7.48107 2.03377 9.43145C1.98861 11.3818 2.69714 13.2745 4.01195 14.7158C5.32677 16.1571 7.14663 17.036 9.09295 17.1697C11.0393 17.3033 12.9622 16.6814 14.4617 15.4334L18.7637 19.7363C18.8276 19.8002 18.9034 19.8508 18.9869 19.8854C19.0703 19.92 19.1598 19.9378 19.2501 19.9378C19.3405 19.9378 19.4299 19.92 19.5134 19.8854C19.5968 19.8508 19.6727 19.8002 19.7365 19.7363C19.8004 19.6724 19.8511 19.5966 19.8856 19.5131C19.9202 19.4297 19.938 19.3402 19.938 19.2499C19.938 19.1596 19.9202 19.0701 19.8856 18.9867C19.8511 18.9032 19.8004 18.8274 19.7365 18.7635ZM3.43762 9.6249C3.43762 8.40112 3.80051 7.20483 4.4804 6.1873C5.16029 5.16978 6.12665 4.37671 7.25727 3.90839C8.38788 3.44007 9.63198 3.31754 10.8322 3.55629C12.0325 3.79503 13.135 4.38434 14.0003 5.24967C14.8657 6.11501 15.455 7.21752 15.6937 8.41777C15.9325 9.61803 15.8099 10.8621 15.3416 11.9927C14.8733 13.1234 14.0802 14.0897 13.0627 14.7696C12.0452 15.4495 10.8489 15.8124 9.62512 15.8124C7.98465 15.8106 6.41189 15.1581 5.25191 13.9981C4.09192 12.8381 3.43944 11.2654 3.43762 9.6249Z" fill="#1F4284"/>
</svg>
