<svg width="22" height="22" viewBox="0 0 22 22" fill="none" xmlns="http://www.w3.org/2000/svg">
<path opacity="0.2" d="M16.1201 12.3979V18.2598H5.86182V12.3979H16.1201Z" fill="black"/>
<path d="M21.2494 17.1932H20.5166V5.64343L21.4023 5.45292C21.4985 5.43489 21.59 5.3978 21.6716 5.34383C21.7531 5.28987 21.8231 5.22012 21.8773 5.1387C21.9315 5.05727 21.9688 4.96583 21.9871 4.86975C22.0054 4.77367 22.0042 4.6749 21.9837 4.57927C21.9633 4.48364 21.9238 4.39307 21.8678 4.31291C21.8118 4.23275 21.7402 4.16462 21.6575 4.11254C21.5747 4.06046 21.4823 4.02547 21.3858 4.00965C21.2893 3.99383 21.1906 3.99749 21.0955 4.02042L0.578862 8.41684C0.402112 8.45498 0.245705 8.55713 0.139728 8.70363C0.0337503 8.85014 -0.0143137 9.03066 0.00478096 9.21047C0.0238756 9.39028 0.10878 9.55667 0.243164 9.67765C0.377547 9.79864 0.551918 9.86566 0.732737 9.86583C0.784767 9.86573 0.836645 9.86021 0.887528 9.84934L1.46547 9.72569V17.1932H0.732737C0.538403 17.1932 0.352029 17.2704 0.214614 17.4078C0.0771988 17.5452 0 17.7316 0 17.9259C0 18.1203 0.0771988 18.3066 0.214614 18.4441C0.352029 18.5815 0.538403 18.6587 0.732737 18.6587H21.2494C21.4437 18.6587 21.6301 18.5815 21.7675 18.4441C21.9049 18.3066 21.9821 18.1203 21.9821 17.9259C21.9821 17.7316 21.9049 17.5452 21.7675 17.4078C21.6301 17.2704 21.4437 17.1932 21.2494 17.1932ZM2.93095 9.40787L19.0512 5.95759V17.1932H16.853V12.064C16.853 11.8697 16.7758 11.6833 16.6383 11.5459C16.5009 11.4085 16.3145 11.3313 16.1202 11.3313H5.8619C5.66756 11.3313 5.48119 11.4085 5.34377 11.5459C5.20636 11.6833 5.12916 11.8697 5.12916 12.064V17.1932H2.93095V9.40787ZM15.3875 14.2622H6.59463V12.7968H15.3875V14.2622ZM6.59463 15.7277H15.3875V17.1932H6.59463V15.7277Z" fill="#FF8C42"/>
</svg>
