<svg width="16" height="16" viewBox="0 0 16 16" fill="none" xmlns="http://www.w3.org/2000/svg">
<path opacity="0.2" d="M14.5 2.5V8.5L10.2931 12.7069C10.2002 12.7998 10.0899 12.8736 9.96855 12.9238C9.84715 12.9741 9.71703 13 9.58562 13H3V6.41437C2.99998 6.28297 3.02586 6.15285 3.07615 6.03145C3.12645 5.91006 3.20018 5.79976 3.29312 5.70687L7.5 1.5H13.5C13.7652 1.5 14.0196 1.60536 14.2071 1.79289C14.3946 1.98043 14.5 2.23478 14.5 2.5Z" fill="#1F4284"/>
<path d="M14.8538 8.85366L12.8538 10.8537C12.7599 10.9475 12.6327 11.0002 12.5 11.0002C12.3673 11.0002 12.2401 10.9475 12.1462 10.8537C12.0524 10.7598 11.9997 10.6326 11.9997 10.4999C11.9997 10.3672 12.0524 10.24 12.1462 10.1462L13.2931 8.9999H7.70687L4.20687 12.4999H6C6.13261 12.4999 6.25979 12.5526 6.35355 12.6464C6.44732 12.7401 6.5 12.8673 6.5 12.9999C6.5 13.1325 6.44732 13.2597 6.35355 13.3535C6.25979 13.4472 6.13261 13.4999 6 13.4999H3C2.86739 13.4999 2.74021 13.4472 2.64645 13.3535C2.55268 13.2597 2.5 13.1325 2.5 12.9999V9.9999C2.5 9.8673 2.55268 9.74012 2.64645 9.64635C2.74021 9.55258 2.86739 9.4999 3 9.4999C3.13261 9.4999 3.25979 9.55258 3.35355 9.64635C3.44732 9.74012 3.5 9.8673 3.5 9.9999V11.793L7 8.29303V2.70678L5.85375 3.85366C5.75993 3.94748 5.63268 4.00018 5.5 4.00018C5.36732 4.00018 5.24007 3.94748 5.14625 3.85366C5.05243 3.75983 4.99972 3.63259 4.99972 3.49991C4.99972 3.36722 5.05243 3.23998 5.14625 3.14616L7.14625 1.14616C7.19269 1.09967 7.24783 1.06279 7.30853 1.03763C7.36923 1.01246 7.43429 0.999512 7.5 0.999512C7.56571 0.999512 7.63077 1.01246 7.69147 1.03763C7.75217 1.06279 7.80731 1.09967 7.85375 1.14616L9.85375 3.14616C9.94757 3.23998 10.0003 3.36722 10.0003 3.49991C10.0003 3.63259 9.94757 3.75983 9.85375 3.85366C9.75993 3.94748 9.63268 4.00018 9.5 4.00018C9.36732 4.00018 9.24007 3.94748 9.14625 3.85366L8 2.70678V7.99991H13.2931L12.1462 6.85366C12.0524 6.75984 11.9997 6.63259 11.9997 6.49991C11.9997 6.36722 12.0524 6.23997 12.1462 6.14615C12.2401 6.05233 12.3673 5.99963 12.5 5.99963C12.6327 5.99963 12.7599 6.05233 12.8538 6.14615L14.8538 8.14615C14.9002 8.19259 14.9371 8.24774 14.9623 8.30843C14.9874 8.36913 15.0004 8.4342 15.0004 8.49991C15.0004 8.56561 14.9874 8.63068 14.9623 8.69138C14.9371 8.75207 14.9002 8.80722 14.8538 8.85366Z" fill="#1F4284"/>
</svg>
