<svg width="24" height="24" viewBox="0 0 24 24" fill="none" xmlns="http://www.w3.org/2000/svg">
<path opacity="0.2" d="M2.25 18.75L2.25 12.75L8.25 18.75H2.25Z" fill="#FF383C"/>
<path d="M2.25007 19.5L8.25007 19.5C8.39849 19.5001 8.54361 19.4562 8.66706 19.3738C8.7905 19.2914 8.88672 19.1742 8.94354 19.0371C9.00035 18.9 9.01521 18.7491 8.98622 18.6035C8.95723 18.458 8.8857 18.3243 8.7807 18.2194L6.31038 15.75L11.2501 10.8103L14.4694 14.0306C14.5391 14.1004 14.6218 14.1557 14.7129 14.1934C14.8039 14.2312 14.9015 14.2506 15.0001 14.2506C15.0986 14.2506 15.1962 14.2312 15.2873 14.1934C15.3783 14.1557 15.461 14.1004 15.5307 14.0306L22.2807 7.28063C22.4214 7.13989 22.5005 6.94902 22.5005 6.75C22.5005 6.55098 22.4214 6.36011 22.2807 6.21937C22.14 6.07864 21.9491 5.99958 21.7501 5.99958C21.551 5.99958 21.3602 6.07864 21.2194 6.21937L15.0001 12.4397L11.7807 9.21937C11.711 9.14964 11.6283 9.09432 11.5373 9.05658C11.4462 9.01884 11.3486 8.99941 11.2501 8.99941C11.1515 8.99941 11.0539 9.01884 10.9629 9.05658C10.8718 9.09432 10.7891 9.14964 10.7194 9.21937L5.25007 14.6897L2.7807 12.2194C2.6758 12.1144 2.54211 12.0428 2.39655 12.0139C2.25099 11.9849 2.1001 11.9997 1.96298 12.0565C1.82586 12.1133 1.70868 12.2096 1.62628 12.333C1.54388 12.4565 1.49995 12.6016 1.50007 12.75V18.75C1.50007 18.9489 1.57909 19.1397 1.71974 19.2803C1.86039 19.421 2.05116 19.5 2.25007 19.5ZM3.00007 14.5603L6.43976 18H3.00007V14.5603Z" fill="#FF383C"/>
</svg>
