<svg width="24" height="24" viewBox="0 0 24 24" fill="none" xmlns="http://www.w3.org/2000/svg">
<path d="M23.9531 10.9687L22.6406 7.6875C22.5156 7.40625 22.332 7.17969 22.0898 7.00781C21.8477 6.83594 21.5703 6.75 21.2578 6.75C21.2422 6.75 21.2344 6.75 21.2344 6.75H18V6C18 5.79687 17.9258 5.62109 17.7773 5.47266C17.6289 5.32422 17.4531 5.25 17.25 5.25H3C2.57812 5.25 2.22266 5.39453 1.93359 5.68359C1.64453 5.97266 1.5 6.32812 1.5 6.75V17.25C1.5 17.6719 1.64453 18.0273 1.93359 18.3164C2.22266 18.6055 2.57812 18.75 3 18.75H4.59375C4.76562 19.4062 5.11719 19.9453 5.64844 20.3672C6.17969 20.7891 6.79688 21 7.5 21C8.20312 21 8.82031 20.7891 9.35156 20.3672C9.88281 19.9453 10.2344 19.4141 10.4062 18.7734V18.75H15.0938C15.2656 19.4062 15.6172 19.9453 16.1484 20.3672C16.6797 20.7891 17.2969 21 18 21C18.7031 21 19.3203 20.7891 19.8516 20.3672C20.3828 19.9453 20.7344 19.4141 20.9062 18.7734V18.75H22.5C22.9219 18.75 23.2773 18.6055 23.5664 18.3164C23.8555 18.0273 24 17.6719 24 17.25V11.25C24 11.2031 23.9961 11.1562 23.9883 11.1094C23.9805 11.0625 23.9688 11.0156 23.9531 10.9687ZM18 8.25H21.2344L22.1484 10.5H18V8.25ZM3 6.75H16.5V12.75H3V6.75ZM7.5 19.5C7.07812 19.5 6.72266 19.3555 6.43359 19.0664C6.14453 18.7773 6 18.4219 6 18C6 17.5781 6.14453 17.2227 6.43359 16.9336C6.72266 16.6445 7.07812 16.5 7.5 16.5C7.92188 16.5 8.27734 16.6445 8.56641 16.9336C8.85547 17.2227 9 17.5781 9 18C9 18.4219 8.85547 18.7773 8.56641 19.0664C8.27734 19.3555 7.92188 19.5 7.5 19.5ZM15.0938 17.25H10.4062C10.2344 16.5937 9.88281 16.0547 9.35156 15.6328C8.82031 15.2109 8.20312 15 7.5 15C6.79688 15 6.17969 15.2109 5.64844 15.6328C5.11719 16.0547 4.76562 16.5859 4.59375 17.2266V17.25H3V14.25H16.5V15.3984C16.1562 15.6016 15.8633 15.8594 15.6211 16.1719C15.3789 16.4844 15.2031 16.8359 15.0938 17.2266V17.25ZM18 19.5C17.5781 19.5 17.2227 19.3555 16.9336 19.0664C16.6445 18.7773 16.5 18.4219 16.5 18C16.5 17.5781 16.6445 17.2227 16.9336 16.9336C17.2227 16.6445 17.5781 16.5 18 16.5C18.4219 16.5 18.7773 16.6445 19.0664 16.9336C19.3555 17.2227 19.5 17.5781 19.5 18C19.5 18.4219 19.3555 18.7773 19.0664 19.0664C18.7773 19.3555 18.4219 19.5 18 19.5ZM22.5 17.25H20.9062C20.7344 16.5937 20.3789 16.0547 19.8398 15.6328C19.3008 15.2109 18.6875 15 18 15V12H22.5V17.25Z" fill="#3A2A85"/>
</svg>
