<svg width="24" height="24" viewBox="0 0 24 24" fill="none" xmlns="http://www.w3.org/2000/svg">
<path opacity="0.2" d="M18 9C18 10.1867 17.6481 11.3467 16.9888 12.3334C16.3295 13.3201 15.3925 14.0892 14.2961 14.5433C13.1997 14.9974 11.9933 15.1162 10.8295 14.8847C9.66558 14.6532 8.59648 14.0818 7.75736 13.2426C6.91825 12.4035 6.3468 11.3344 6.11529 10.1705C5.88378 9.00666 6.0026 7.80026 6.45673 6.7039C6.91085 5.60754 7.67989 4.67047 8.66658 4.01118C9.65328 3.35189 10.8133 3 12 3C13.5913 3 15.1174 3.63214 16.2426 4.75736C17.3679 5.88258 18 7.4087 18 9Z" fill="#D34127"/>
<path d="M21.6489 19.8756C20.2211 17.4072 18.0208 15.6372 15.4529 14.7981C16.7231 14.042 17.7099 12.8898 18.2619 11.5185C18.8139 10.1473 18.9004 8.63273 18.5083 7.2075C18.1162 5.78227 17.2671 4.52515 16.0914 3.62921C14.9156 2.73327 13.4783 2.24805 12.0001 2.24805C10.5219 2.24805 9.08463 2.73327 7.90891 3.62921C6.73318 4.52515 5.88407 5.78227 5.49195 7.2075C5.09984 8.63273 5.18641 10.1473 5.73837 11.5185C6.29033 12.8898 7.27716 14.042 8.54732 14.7981C5.97951 15.6362 3.77919 17.4062 2.35138 19.8756C2.29902 19.961 2.26429 20.056 2.24924 20.155C2.23419 20.254 2.23912 20.355 2.26375 20.4521C2.28837 20.5492 2.33219 20.6404 2.39262 20.7202C2.45305 20.8001 2.52887 20.8671 2.61559 20.9171C2.70232 20.9672 2.7982 20.9995 2.89758 21.0119C2.99695 21.0243 3.09782 21.0167 3.19421 20.9896C3.29061 20.9624 3.38059 20.9162 3.45884 20.8537C3.53709 20.7912 3.60203 20.7136 3.64982 20.6256C5.41607 17.5731 8.53794 15.7506 12.0001 15.7506C15.4623 15.7506 18.5842 17.5731 20.3504 20.6256C20.3982 20.7136 20.4632 20.7912 20.5414 20.8537C20.6197 20.9162 20.7097 20.9624 20.806 20.9896C20.9024 21.0167 21.0033 21.0243 21.1027 21.0119C21.2021 20.9995 21.2979 20.9672 21.3847 20.9171C21.4714 20.8671 21.5472 20.8001 21.6076 20.7202C21.6681 20.6404 21.7119 20.5492 21.7365 20.4521C21.7611 20.355 21.7661 20.254 21.751 20.155C21.736 20.056 21.7012 19.961 21.6489 19.8756ZM6.75013 9.0006C6.75013 7.96225 7.05804 6.94721 7.63492 6.08385C8.21179 5.2205 9.03173 4.54759 9.99104 4.15023C10.9504 3.75287 12.006 3.6489 13.0244 3.85147C14.0428 4.05405 14.9782 4.55406 15.7124 5.28829C16.4467 6.02251 16.9467 6.95797 17.1493 7.97637C17.3518 8.99478 17.2479 10.0504 16.8505 11.0097C16.4531 11.969 15.7802 12.7889 14.9169 13.3658C14.0535 13.9427 13.0385 14.2506 12.0001 14.2506C10.6082 14.2491 9.27371 13.6955 8.28947 12.7113C7.30522 11.727 6.75162 10.3925 6.75013 9.0006Z" fill="#D34127"/>
</svg>
