<svg width="22" height="22" viewBox="0 0 22 22" fill="none" xmlns="http://www.w3.org/2000/svg">
<path opacity="0.2" d="M18.5161 18.5621H3.48387C2.39934 18.5621 1.71871 17.4269 2.24551 16.5074L9.7616 3.45605C10.303 2.51074 11.6969 2.51074 12.2383 3.45605L19.7544 16.5074C20.2812 17.4269 19.6006 18.5621 18.5161 18.5621Z" fill="black"/>
<path d="M20.3499 16.164L12.8347 3.11271C12.6469 2.79296 12.3788 2.52784 12.057 2.34362C11.7352 2.15941 11.3708 2.0625 10.9999 2.0625C10.6291 2.0625 10.2647 2.15941 9.94291 2.34362C9.62108 2.52784 9.35298 2.79296 9.16518 3.11271L1.64995 16.164C1.46925 16.4733 1.37402 16.8251 1.37402 17.1833C1.37402 17.5415 1.46925 17.8932 1.64995 18.2025C1.83534 18.5242 2.10298 18.7907 2.42541 18.9748C2.74784 19.1589 3.11345 19.2539 3.48471 19.2501H18.5152C18.8862 19.2536 19.2514 19.1585 19.5735 18.9744C19.8956 18.7903 20.163 18.5239 20.3482 18.2025C20.5292 17.8934 20.6247 17.5417 20.625 17.1835C20.6253 16.8253 20.5304 16.4735 20.3499 16.164ZM19.158 17.5141C19.0925 17.6259 18.9984 17.7182 18.8855 17.7816C18.7725 17.8451 18.6447 17.8773 18.5152 17.8751H3.48471C3.35518 17.8773 3.22739 17.8451 3.11443 17.7816C3.00147 17.7182 2.90741 17.6259 2.8419 17.5141C2.78255 17.4136 2.75125 17.2991 2.75125 17.1824C2.75125 17.0657 2.78255 16.9512 2.8419 16.8507L10.3571 3.79935C10.424 3.68813 10.5185 3.59609 10.6314 3.53219C10.7443 3.4683 10.8719 3.43472 11.0017 3.43472C11.1314 3.43472 11.259 3.4683 11.3719 3.53219C11.4849 3.59609 11.5794 3.68813 11.6462 3.79935L19.1614 16.8507C19.2203 16.9515 19.251 17.0662 19.2504 17.1829C19.2498 17.2996 19.2179 17.414 19.158 17.5141ZM10.3124 12.3751V8.93756C10.3124 8.75522 10.3849 8.58035 10.5138 8.45142C10.6427 8.32249 10.8176 8.25006 10.9999 8.25006C11.1823 8.25006 11.3572 8.32249 11.4861 8.45142C11.615 8.58035 11.6874 8.75522 11.6874 8.93756V12.3751C11.6874 12.5574 11.615 12.7323 11.4861 12.8612C11.3572 12.9901 11.1823 13.0626 10.9999 13.0626C10.8176 13.0626 10.6427 12.9901 10.5138 12.8612C10.3849 12.7323 10.3124 12.5574 10.3124 12.3751ZM12.0312 15.4688C12.0312 15.6728 11.9707 15.8721 11.8574 16.0417C11.7441 16.2113 11.583 16.3435 11.3946 16.4216C11.2062 16.4996 10.9988 16.52 10.7988 16.4802C10.5987 16.4405 10.415 16.3422 10.2707 16.198C10.1265 16.0538 10.0283 15.87 9.98851 15.67C9.94872 15.4699 9.96914 15.2626 10.0472 15.0742C10.1252 14.8857 10.2574 14.7247 10.427 14.6114C10.5966 14.498 10.796 14.4376 10.9999 14.4376C11.2734 14.4376 11.5358 14.5462 11.7291 14.7396C11.9225 14.933 12.0312 15.1953 12.0312 15.4688Z" fill="black"/>
</svg>
